Teen Idol # 7 DVD
Smash Pictures

Category All Sex, HD - Shot In High Def, Legal Teen 
Director Jim Powers 
Starring Gracie Glam, Brooke Lee Adams, Lily Labeau, Victoria White, Michael Vegas, Joey Brass, Melanie Rios, Ralph Long, Chris Strokes, Eva Ellington, Vin Vericose
Five torrid tales of teen lust erupt in this brand new edition of TEEN IDOL. A young catholic school girl fantasizes about her teacher fucking her on his desk during a detention period. Meet the very bad cheerleader who forces her way onto a young educator with the threat of blackmail. A teen allows her boyfriend to pity fuck her bestfriend, then joins in for her first threesome. A soccer player shows her trainer just how much she appreciates what he has done for her. And a young couple get caught in a rainstorm and use a little friction to warm up. It's a cumming of age party you won't want to miss out on.
 
http://bayimg.com/dAMjmAadM
 
http://bayimg.com/damjnAadM
 
http://bayimg.com/DAMJOAADM

General
Complete name                    : C:\Downloads\TEEN IDOL 7 DVD\dvd\TEEN IDOL 7 DVD.avi
Format                           : AVI
Format/Info                      : Audio Video Interleave
Format profile                   : OpenDML
File size                        : 1.31 GiB
Duration                         : 2h 19mn
Overall bit rate                 : 1 339 Kbps
Writing application              : MEncoder SVN-r30881(20100311-gcc4.3.3)
Writing library                  : MPlayer

Video
ID                               : 0
Format                           : MPEG-4 Visual
Format profile                   : Advanced Simple@L5
Format settings, BVOP            : 2
Format settings, QPel            : No
Format settings, GMC             : No warppoints
Format settings, Matrix          : Default (H.263)
Codec ID                         : XVID
Codec ID/Hint                    : XviD
Duration                         : 2h 19mn
Bit rate                         : 40.3 Kbps
Width                            : 720 pixels
Height                           : 480 pixels
Display aspect ratio             : 3:2
Frame rate                       : 25.000 fps
Standard                         : NTSC
Color space                      : YUV
Chroma subsampling               : 4:2:0
Bit depth                        : 8 bits
Scan type                        : Progressive
Compression mode                 : Lossy
Bits/(Pixel*Frame)               : 0.005
Stream size                      : 40.2 MiB (3%)
Writing library                  : XviD 1.2.1 (UTC 2008-12-04)

Audio
ID                               : 1
Format                           : MPEG Audio
Codec ID                         : 55
Codec ID/Hint                    : MP3
Duration                         : 2h 19mn
Bit rate                         : 128 Kbps
Channel(s)                       : 2 channels
Sampling rate                    : 44.1 KHz
Compression mode                 : Lossy
Stream size                      : 128 MiB (10%)
Alignment                        : Aligned on interleaves

